<svg width="24" height="24" viewBox="0 0 24 24" fill="none" xmlns="http://www.w3.org/2000/svg">
<path d="M17.0005 12.5C17.2766 12.5 17.5005 12.2761 17.5005 12C17.5005 11.7239 17.2766 11.5 17.0005 11.5C16.7244 11.5 16.5005 11.7239 16.5005 12C16.5005 12.2761 16.7244 12.5 17.0005 12.5Z" fill="#323232" stroke="#323232" stroke-width="1.8" stroke-linecap="round" stroke-linejoin="round"/>
<path d="M12.0005 12.5C12.2766 12.5 12.5005 12.2761 12.5005 12C12.5005 11.7239 12.2766 11.5 12.0005 11.5C11.7244 11.5 11.5005 11.7239 11.5005 12C11.5005 12.2761 11.7244 12.5 12.0005 12.5Z" fill="#323232" stroke="#323232" stroke-width="1.8" stroke-linecap="round" stroke-linejoin="round"/>
<path d="M7.00049 12.5C7.27663 12.5 7.50049 12.2761 7.50049 12C7.50049 11.7239 7.27663 11.5 7.00049 11.5C6.72435 11.5 6.50049 11.7239 6.50049 12C6.50049 12.2761 6.72435 12.5 7.00049 12.5Z" fill="#323232" stroke="#323232" stroke-width="1.8" stroke-linecap="round" stroke-linejoin="round"/>
<path d="M12 22C17.5228 22 22 17.5228 22 12C22 6.47715 17.5228 2 12 2C6.47714 2 2 6.47715 2 12C2 13.8214 2.48697 15.5291 3.33782 17L2.5 21.5L6.99999 20.6622C8.47086 21.513 10.1786 22 12 22Z" stroke="#323232" stroke-width="1.8" stroke-linecap="round" stroke-linejoin="round"/>
</svg>
