<svg width="24" height="24" viewBox="0 0 24 24" fill="none" xmlns="http://www.w3.org/2000/svg">
<path d="M3.885 6.09139C4.24644 6.09114 4.60805 6.08472 4.96924 6.09425C5.11714 6.09815 5.1723 6.0442 5.21317 5.9034C5.66978 4.33008 6.70591 3.37301 8.31326 3.0626C10.3845 2.66261 12.5019 4.22981 12.7464 6.32427C13.0029 8.52153 11.5911 10.3613 9.40419 10.6797C7.57573 10.946 5.72958 9.71841 5.23703 7.891C5.17625 7.66551 5.08714 7.60572 4.86491 7.61064C4.19055 7.62556 3.51564 7.61789 2.84096 7.61531C2.34352 7.61341 1.99799 7.29689 2.001 6.85281C2.00395 6.41689 2.34016 6.10221 2.8248 6.09296C3.17808 6.08622 3.53159 6.09164 3.885 6.09139ZM8.9334 9.17434C9.39218 9.17543 9.841 9.04054 10.2232 8.78671C10.6053 8.53287 10.9037 8.17149 11.0806 7.74818C11.2575 7.32488 11.305 6.85864 11.2171 6.40837C11.1291 5.95809 10.9097 5.54397 10.5866 5.21831C10.2635 4.89264 9.85105 4.67004 9.40147 4.57861C8.95189 4.48719 8.4853 4.53104 8.06062 4.70464C7.63595 4.87823 7.27225 5.17378 7.01545 5.55396C6.75865 5.93413 6.62027 6.38188 6.61779 6.84065C6.61514 7.14633 6.67309 7.44951 6.7883 7.73266C6.9035 8.01581 7.07368 8.27332 7.289 8.49032C7.50431 8.70731 7.76049 8.87949 8.04274 8.99689C8.32499 9.1143 8.62771 9.17461 8.9334 9.17434Z" fill="#323232"/>
<path d="M20.1464 17.909C19.8011 17.9092 19.4554 17.9175 19.1105 17.9056C18.9481 17.9 18.8758 17.9465 18.8278 18.1109C18.3681 19.684 17.3272 20.6368 15.7185 20.9402C13.6551 21.3293 11.5461 19.7647 11.3011 17.6838C11.0423 15.486 12.4495 13.6441 14.6341 13.3211C16.4629 13.0507 18.3124 14.2741 18.8077 16.1001C18.8713 16.3344 18.9685 16.3945 19.1965 16.3896C19.8709 16.375 20.5457 16.3823 21.2204 16.3853C21.7005 16.3874 22.043 16.703 22.0463 17.1378C22.0495 17.5709 21.711 17.896 21.2307 17.9071C20.8695 17.9154 20.5079 17.9087 20.1464 17.909ZM17.4293 17.1582C17.4313 16.6991 17.297 16.2497 17.0434 15.8669C16.7898 15.4841 16.4284 15.1852 16.0048 15.008C15.5812 14.8308 15.1146 14.7832 14.664 14.8714C14.2134 14.9595 13.799 15.1793 13.4734 15.5031C13.1478 15.8268 12.9256 16.2399 12.8349 16.69C12.7442 17.1401 12.7891 17.607 12.9639 18.0315C13.1387 18.4561 13.4355 18.8193 13.8169 19.075C14.1982 19.3308 14.6468 19.4677 15.106 19.4683C15.4104 19.4699 15.7121 19.4113 15.9938 19.2959C16.2755 19.1805 16.5317 19.0106 16.7476 18.7959C16.9634 18.5813 17.1348 18.3261 17.2518 18.0451C17.3688 17.764 17.4291 17.4627 17.4293 17.1582Z" fill="#323232"/>
<path d="M18.197 7.61401C17.1608 7.61401 16.1245 7.6175 15.0883 7.612C14.9304 7.61181 14.7767 7.56068 14.6502 7.4662C14.5236 7.37172 14.4309 7.23894 14.3858 7.08757C14.2856 6.77767 14.3789 6.42968 14.6547 6.25712C14.8094 6.15954 14.9872 6.10465 15.17 6.09804C17.1861 6.08725 19.2024 6.08893 21.2186 6.09282C21.6644 6.09368 21.9783 6.35671 22.0401 6.75339C22.0636 6.93018 22.0241 7.1096 21.9285 7.26017C21.8329 7.41074 21.6874 7.52283 21.5174 7.57677C21.401 7.60609 21.281 7.61862 21.1611 7.61397C20.1731 7.61671 19.1851 7.61552 18.197 7.61552V7.61401Z" fill="#323232"/>
<path d="M5.85042 16.3864C6.88662 16.3864 7.92284 16.3825 8.959 16.3885C9.12931 16.3897 9.29406 16.4493 9.42574 16.5573C9.55741 16.6653 9.64802 16.8153 9.68244 16.9821C9.71963 17.1398 9.7036 17.3055 9.63683 17.4532C9.57006 17.6009 9.45632 17.7223 9.31331 17.7986C9.1694 17.8681 9.01176 17.9044 8.85197 17.9051C6.85188 17.9119 4.85178 17.913 2.85165 17.9084C2.38809 17.9077 2.0682 17.6491 2.00701 17.2457C1.98327 17.073 2.02025 16.8975 2.11163 16.7492C2.203 16.6008 2.3431 16.4888 2.50794 16.4323C2.62297 16.3988 2.74255 16.3835 2.86231 16.387C3.85834 16.3836 4.85438 16.3851 5.85042 16.3851V16.3864Z" fill="#323232"/>
</svg>
