<svg width="24" height="24" viewBox="0 0 24 24" fill="none" xmlns="http://www.w3.org/2000/svg">
<path d="M19.7778 2H4.22222C2.99492 2 2 2.99492 2 4.22222V19.7778C2 21.0051 2.99492 22 4.22222 22H19.7778C21.0051 22 22 21.0051 22 19.7778V4.22222C22 2.99492 21.0051 2 19.7778 2Z" stroke="#323232" stroke-width="2" stroke-linecap="round" stroke-linejoin="round"/>
<path d="M8.111 9.77767C9.03148 9.77767 9.77767 9.03148 9.77767 8.111C9.77767 7.19053 9.03148 6.44434 8.111 6.44434C7.19053 6.44434 6.44434 7.19053 6.44434 8.111C6.44434 9.03148 7.19053 9.77767 8.111 9.77767Z" stroke="#323232" stroke-width="2" stroke-linecap="round" stroke-linejoin="round"/>
<path d="M22.0004 15.3334L16.4449 9.77783L4.22266 22.0001" stroke="#323232" stroke-width="2" stroke-linecap="round" stroke-linejoin="round"/>
</svg>
