<svg width="24" height="24" viewBox="0 0 24 24" fill="none" xmlns="http://www.w3.org/2000/svg">
<path d="M21.999 6.32982C21.8654 6.67919 21.7832 7.05425 21.5982 7.36765C21.1358 8.14859 20.4165 8.58016 19.5071 8.61099C18.6183 8.64695 17.7295 8.63154 16.8406 8.62126C16.3937 8.61613 16.0546 8.25135 16.0494 7.81464C16.0443 7.36765 16.3885 7.00287 16.8458 6.99259C17.5137 6.98232 18.1867 6.98746 18.8546 6.98746C18.9317 6.98746 19.0036 6.98746 19.1424 6.98746C18.8855 6.62781 18.6697 6.28872 18.4179 5.98045C17.0821 4.33123 15.3815 3.26258 13.3059 2.83614C10.7884 2.32237 8.45581 2.80018 6.3596 4.29527C4.60249 5.54888 3.43108 7.22379 2.91216 9.32514C2.28536 11.8581 2.68096 14.2523 4.14009 16.4153C5.58894 18.568 7.62863 19.8678 10.2026 20.2583C10.8038 20.3508 11.4254 20.3148 12.042 20.3405C12.2064 20.3456 12.3708 20.3251 12.5301 20.3559C12.9359 20.433 13.2082 20.8029 13.1774 21.2036C13.1466 21.6095 12.828 21.9281 12.417 21.9589C12.2886 21.9692 12.1601 21.9846 12.0317 22C11.6464 22 11.2662 22 10.8808 22C10.814 21.9897 10.7473 21.9743 10.6805 21.964C10.2951 21.9127 9.90466 21.887 9.52446 21.8099C7.24844 21.3732 5.31664 20.2994 3.75989 18.5885C1.66369 16.2817 0.764579 13.5432 1.05229 10.44C1.25267 8.24107 2.08498 6.27844 3.55952 4.62922C6.22088 1.66987 9.54502 0.503598 13.46 1.19206C16.0751 1.65446 18.1867 3.01083 19.8257 5.1019C20.0004 5.32796 20.1596 5.55916 20.36 5.83146C20.36 5.71843 20.36 5.65164 20.36 5.58485C20.36 4.91694 20.3549 4.24389 20.3651 3.57598C20.3703 3.22148 20.5398 2.95945 20.8686 2.82073C21.1872 2.68201 21.4955 2.73853 21.7421 2.98C21.8602 3.09303 21.9219 3.26258 22.0092 3.40643C21.999 4.38775 21.999 5.35878 21.999 6.32982Z" fill="white"/>
<path d="M12.3194 8.2206C12.3194 9.28926 12.3143 10.3528 12.3194 11.4214C12.3194 11.6989 12.227 11.9301 12.0369 12.1202C10.9836 13.1734 9.93038 14.2318 8.872 15.2799C8.37877 15.768 7.62866 15.5933 7.45911 14.9511C7.37177 14.6325 7.47453 14.3602 7.70573 14.129C8.00885 13.8259 8.31712 13.5176 8.62025 13.2145C9.26247 12.5723 9.90469 11.9249 10.552 11.2878C10.6497 11.1954 10.6805 11.0977 10.6805 10.9642C10.6754 8.98099 10.6754 6.99781 10.6805 5.01464C10.6805 4.5882 10.8757 4.27994 11.22 4.15663C11.7646 3.96139 12.3143 4.35186 12.3194 4.95812C12.3246 5.92402 12.3194 6.88478 12.3194 7.85068C12.3194 7.97913 12.3194 8.09729 12.3194 8.2206Z" fill="white"/>
<path d="M15.515 21.1572C15.1399 21.1366 14.8317 20.8951 14.7289 20.5304C14.6313 20.1861 14.7751 19.8111 15.0937 19.6313C15.366 19.4771 15.6486 19.3333 15.9363 19.21C16.337 19.0353 16.7891 19.2048 16.9844 19.585C17.1745 19.9652 17.0614 20.4225 16.6915 20.6434C16.4192 20.8078 16.1264 20.9414 15.8335 21.0801C15.7359 21.1263 15.6229 21.1315 15.515 21.1572Z" fill="white"/>
<path d="M19.9746 14.2214C20.0517 13.9594 20.1339 13.5484 20.2932 13.1682C20.4421 12.8085 20.8789 12.6647 21.2539 12.788C21.6187 12.9061 21.8704 13.2658 21.8037 13.646C21.742 13.9953 21.6547 14.3396 21.5416 14.6735C21.4132 15.0486 21.0227 15.2284 20.6066 15.1513C20.2469 15.0845 19.9797 14.7506 19.9746 14.2214Z" fill="white"/>
<path d="M20.1701 17.2988C20.093 17.4683 20.0314 17.6481 19.9286 17.8023C19.7848 18.0181 19.6101 18.2133 19.4405 18.4085C19.1374 18.7733 18.639 18.8298 18.2897 18.5524C17.93 18.2698 17.8684 17.7817 18.1509 17.4015C18.3308 17.16 18.5209 16.9288 18.7212 16.7079C18.9473 16.4613 19.3018 16.3894 19.6049 16.5127C19.9286 16.636 20.129 16.934 20.1701 17.2988Z" fill="white"/>
</svg>
