<svg width="24" height="24" viewBox="0 0 24 24" fill="none" xmlns="http://www.w3.org/2000/svg">
<path d="M21.1663 11.167H19.4997V9.50033C19.4997 9.27931 19.4119 9.06735 19.2556 8.91107C19.0993 8.75479 18.8874 8.66699 18.6663 8.66699C18.4453 8.66699 18.2334 8.75479 18.0771 8.91107C17.9208 9.06735 17.833 9.27931 17.833 9.50033V11.167H16.1663C15.9453 11.167 15.7334 11.2548 15.5771 11.4111C15.4208 11.5674 15.333 11.7793 15.333 12.0003C15.333 12.2213 15.4208 12.4333 15.5771 12.5896C15.7334 12.7459 15.9453 12.8337 16.1663 12.8337H17.833V14.5003C17.833 14.7213 17.9208 14.9333 18.0771 15.0896C18.2334 15.2459 18.4453 15.3337 18.6663 15.3337C18.8874 15.3337 19.0993 15.2459 19.2556 15.0896C19.4119 14.9333 19.4997 14.7213 19.4997 14.5003V12.8337H21.1663C21.3874 12.8337 21.5993 12.7459 21.7556 12.5896C21.9119 12.4333 21.9997 12.2213 21.9997 12.0003C21.9997 11.7793 21.9119 11.5674 21.7556 11.4111C21.5993 11.2548 21.3874 11.167 21.1663 11.167Z" fill="white"/>
<path d="M9.5 12C10.4889 12 11.4556 11.7068 12.2779 11.1573C13.1001 10.6079 13.741 9.82705 14.1194 8.91342C14.4978 7.99979 14.5969 6.99446 14.4039 6.02455C14.211 5.05465 13.7348 4.16373 13.0355 3.46447C12.3363 2.76521 11.4454 2.289 10.4755 2.09608C9.50555 1.90315 8.50021 2.00217 7.58658 2.3806C6.67295 2.75904 5.89206 3.39991 5.34265 4.22215C4.79324 5.0444 4.5 6.0111 4.5 7C4.50132 8.32568 5.02853 9.59668 5.96593 10.5341C6.90332 11.4715 8.17432 11.9987 9.5 12ZM9.5 3.66667C10.1593 3.66667 10.8037 3.86217 11.3519 4.22844C11.9001 4.59471 12.3273 5.1153 12.5796 5.72439C12.8319 6.33348 12.8979 7.0037 12.7693 7.6503C12.6407 8.29691 12.3232 8.89085 11.857 9.35702C11.3908 9.8232 10.7969 10.1407 10.1503 10.2693C9.5037 10.3979 8.83348 10.3319 8.22439 10.0796C7.6153 9.82731 7.09471 9.40007 6.72843 8.8519C6.36216 8.30374 6.16667 7.65927 6.16667 7C6.16667 6.11595 6.51786 5.2681 7.14298 4.64298C7.7681 4.01786 8.61595 3.66667 9.5 3.66667Z" fill="white"/>
<path d="M9.5 13.667C7.51155 13.6692 5.60518 14.4601 4.19914 15.8661C2.79309 17.2722 2.00221 19.1785 2 21.167C2 21.388 2.0878 21.6 2.24408 21.7562C2.40036 21.9125 2.61232 22.0003 2.83333 22.0003C3.05435 22.0003 3.26631 21.9125 3.42259 21.7562C3.57887 21.6 3.66667 21.388 3.66667 21.167C3.66667 19.6199 4.28125 18.1362 5.37521 17.0422C6.46917 15.9482 7.9529 15.3337 9.5 15.3337C11.0471 15.3337 12.5308 15.9482 13.6248 17.0422C14.7188 18.1362 15.3333 19.6199 15.3333 21.167C15.3333 21.388 15.4211 21.6 15.5774 21.7562C15.7337 21.9125 15.9457 22.0003 16.1667 22.0003C16.3877 22.0003 16.5996 21.9125 16.7559 21.7562C16.9122 21.6 17 21.388 17 21.167C16.9978 19.1785 16.2069 17.2722 14.8009 15.8661C13.3948 14.4601 11.4884 13.6692 9.5 13.667Z" fill="white"/>
</svg>
