<svg width="24" height="25" viewBox="0 0 24 25" fill="none" xmlns="http://www.w3.org/2000/svg">
<g clip-path="url(#clip0_1_27)">
<path d="M23.7264 12.7659C23.7264 11.782 23.6466 11.0641 23.4738 10.3196H12.2393V14.7601H18.8337C18.7008 15.8637 17.9829 17.5256 16.3874 18.6423L16.365 18.791L19.9172 21.5428L20.1633 21.5674C22.4234 19.48 23.7264 16.4088 23.7264 12.7659Z" fill="#4285F4"/>
<path d="M12.2393 24.4657C15.47 24.4657 18.1822 23.402 20.1633 21.5673L16.3874 18.6423C15.377 19.347 14.0208 19.8389 12.2393 19.8389C9.07507 19.8389 6.38945 17.7516 5.4321 14.8665L5.29177 14.8785L1.59821 17.7369L1.54991 17.8712C3.51759 21.78 7.55935 24.4657 12.2393 24.4657Z" fill="#34A853"/>
<path d="M5.43211 14.8666C5.1795 14.122 5.03331 13.3243 5.03331 12.5C5.03331 11.6756 5.1795 10.878 5.41882 10.1334L5.41213 9.97487L1.67228 7.07047L1.54992 7.12867C0.738944 8.75071 0.273605 10.5722 0.273605 12.5C0.273605 14.4278 0.738944 16.2492 1.54992 17.8712L5.43211 14.8666Z" fill="#FBBC05"/>
<path d="M12.2393 5.16098C14.4862 5.16098 16.0018 6.13153 16.866 6.9426L20.243 3.64536C18.169 1.71755 15.47 0.534271 12.2393 0.534271C7.55935 0.534271 3.51759 3.21989 1.54991 7.12866L5.41881 10.1334C6.38945 7.24836 9.07507 5.16098 12.2393 5.16098Z" fill="#EB4335"/>
</g>
<defs>
<clipPath id="clip0_1_27">
<rect width="23.4528" height="24" fill="white" transform="translate(0.273605 0.5)"/>
</clipPath>
</defs>
</svg>
