<svg width="40" height="40" viewBox="0 0 40 40" fill="none" xmlns="http://www.w3.org/2000/svg">
<rect width="40" height="40" rx="6" fill="white"/>
<rect width="40" height="40" rx="6" fill="#323232"/>
<path d="M29.1663 19.167H27.4997V17.5003C27.4997 17.2793 27.4119 17.0674 27.2556 16.9111C27.0993 16.7548 26.8874 16.667 26.6663 16.667C26.4453 16.667 26.2334 16.7548 26.0771 16.9111C25.9208 17.0674 25.833 17.2793 25.833 17.5003V19.167H24.1663C23.9453 19.167 23.7334 19.2548 23.5771 19.4111C23.4208 19.5674 23.333 19.7793 23.333 20.0003C23.333 20.2213 23.4208 20.4333 23.5771 20.5896C23.7334 20.7459 23.9453 20.8337 24.1663 20.8337H25.833V22.5003C25.833 22.7213 25.9208 22.9333 26.0771 23.0896C26.2334 23.2459 26.4453 23.3337 26.6663 23.3337C26.8874 23.3337 27.0993 23.2459 27.2556 23.0896C27.4119 22.9333 27.4997 22.7213 27.4997 22.5003V20.8337H29.1663C29.3874 20.8337 29.5993 20.7459 29.7556 20.5896C29.9119 20.4333 29.9997 20.2213 29.9997 20.0003C29.9997 19.7793 29.9119 19.5674 29.7556 19.4111C29.5993 19.2548 29.3874 19.167 29.1663 19.167Z" fill="white"/>
<path d="M17.5 20C18.4889 20 19.4556 19.7068 20.2779 19.1573C21.1001 18.6079 21.741 17.827 22.1194 16.9134C22.4978 15.9998 22.5969 14.9945 22.4039 14.0246C22.211 13.0546 21.7348 12.1637 21.0355 11.4645C20.3363 10.7652 19.4454 10.289 18.4755 10.0961C17.5055 9.90315 16.5002 10.0022 15.5866 10.3806C14.673 10.759 13.8921 11.3999 13.3427 12.2222C12.7932 13.0444 12.5 14.0111 12.5 15C12.5013 16.3257 13.0285 17.5967 13.9659 18.5341C14.9033 19.4715 16.1743 19.9987 17.5 20ZM17.5 11.6667C18.1593 11.6667 18.8037 11.8622 19.3519 12.2284C19.9001 12.5947 20.3273 13.1153 20.5796 13.7244C20.8319 14.3335 20.8979 15.0037 20.7693 15.6503C20.6407 16.2969 20.3232 16.8909 19.857 17.357C19.3908 17.8232 18.7969 18.1407 18.1503 18.2693C17.5037 18.3979 16.8335 18.3319 16.2244 18.0796C15.6153 17.8273 15.0947 17.4001 14.7284 16.8519C14.3622 16.3037 14.1667 15.6593 14.1667 15C14.1667 14.1159 14.5179 13.2681 15.143 12.643C15.7681 12.0179 16.6159 11.6667 17.5 11.6667Z" fill="white"/>
<path d="M17.5 21.667C15.5116 21.6692 13.6052 22.4601 12.1991 23.8661C10.7931 25.2722 10.0022 27.1785 10 29.167C10 29.388 10.0878 29.6 10.2441 29.7562C10.4004 29.9125 10.6123 30.0003 10.8333 30.0003C11.0543 30.0003 11.2663 29.9125 11.4226 29.7562C11.5789 29.6 11.6667 29.388 11.6667 29.167C11.6667 27.6199 12.2812 26.1362 13.3752 25.0422C14.4692 23.9482 15.9529 23.3337 17.5 23.3337C19.0471 23.3337 20.5308 23.9482 21.6248 25.0422C22.7188 26.1362 23.3333 27.6199 23.3333 29.167C23.3333 29.388 23.4211 29.6 23.5774 29.7562C23.7337 29.9125 23.9457 30.0003 24.1667 30.0003C24.3877 30.0003 24.5996 29.9125 24.7559 29.7562C24.9122 29.6 25 29.388 25 29.167C24.9978 27.1785 24.2069 25.2722 22.8009 23.8661C21.3948 22.4601 19.4884 21.6692 17.5 21.667Z" fill="white"/>
</svg>
