<svg width="48" height="48" viewBox="0 0 48 48" fill="none" xmlns="http://www.w3.org/2000/svg">
<circle cx="24" cy="24" r="24" fill="white"/>
<path d="M30 19.5C30 17.9087 29.3679 16.3826 28.2426 15.2574C27.1174 14.1321 25.5913 13.5 24 13.5C22.4087 13.5 20.8826 14.1321 19.7574 15.2574C18.6321 16.3826 18 17.9087 18 19.5C18 26.5 15 28.5 15 28.5H33C33 28.5 30 26.5 30 19.5Z" stroke="black" stroke-width="2" stroke-linecap="round" stroke-linejoin="round"/>
<path d="M25.73 32.5C25.5542 32.8031 25.3019 33.0547 24.9982 33.2295C24.6946 33.4044 24.3504 33.4965 24 33.4965C23.6496 33.4965 23.3054 33.4044 23.0018 33.2295C22.6982 33.0547 22.4458 32.8031 22.27 32.5" stroke="black" stroke-width="2" stroke-linecap="round" stroke-linejoin="round"/>
</svg>
