<svg width="40" height="40" viewBox="0 0 40 40" fill="none" xmlns="http://www.w3.org/2000/svg">
<rect width="40" height="40" rx="6" fill="#323232"/>
<path d="M29.999 14.3298C29.8654 14.6792 29.7832 15.0542 29.5982 15.3677C29.1358 16.1486 28.4165 16.5802 27.5071 16.611C26.6183 16.647 25.7295 16.6315 24.8406 16.6213C24.3937 16.6161 24.0546 16.2513 24.0494 15.8146C24.0443 15.3677 24.3885 15.0029 24.8458 14.9926C25.5137 14.9823 26.1867 14.9875 26.8546 14.9875C26.9317 14.9875 27.0036 14.9875 27.1424 14.9875C26.8855 14.6278 26.6697 14.2887 26.4179 13.9805C25.0821 12.3312 23.3815 11.2626 21.3059 10.8361C18.7884 10.3224 16.4558 10.8002 14.3596 12.2953C12.6025 13.5489 11.4311 15.2238 10.9122 17.3251C10.2854 19.8581 10.681 22.2523 12.1401 24.4153C13.5889 26.568 15.6286 27.8678 18.2027 28.2583C18.8038 28.3508 19.4254 28.3148 20.042 28.3405C20.2064 28.3456 20.3708 28.3251 20.5301 28.3559C20.9359 28.433 21.2082 28.8029 21.1774 29.2036C21.1466 29.6095 20.828 29.9281 20.417 29.9589C20.2886 29.9692 20.1601 29.9846 20.0317 30C19.6464 30 19.2662 30 18.8808 30C18.814 29.9897 18.7473 29.9743 18.6805 29.964C18.2951 29.9127 17.9047 29.887 17.5245 29.8099C15.2484 29.3732 13.3166 28.2994 11.7599 26.5885C9.66369 24.2817 8.76458 21.5432 9.05229 18.44C9.25267 16.2411 10.085 14.2784 11.5595 12.6292C14.2209 9.66987 17.545 8.5036 21.46 9.19206C24.0751 9.65446 26.1867 11.0108 27.8257 13.1019C28.0004 13.328 28.1596 13.5592 28.36 13.8315C28.36 13.7184 28.36 13.6516 28.36 13.5848C28.36 12.9169 28.3549 12.2439 28.3651 11.576C28.3703 11.2215 28.5398 10.9594 28.8686 10.8207C29.1872 10.682 29.4955 10.7385 29.7421 10.98C29.8602 11.093 29.9219 11.2626 30.0092 11.4064C29.999 12.3877 29.999 13.3588 29.999 14.3298Z" fill="white"/>
<path d="M20.3189 16.2206C20.3189 17.2893 20.3138 18.3528 20.3189 19.4214C20.3189 19.6989 20.2265 19.9301 20.0364 20.1202C18.9831 21.1734 17.9299 22.2318 16.8715 23.2799C16.3783 23.768 15.6282 23.5933 15.4586 22.9511C15.3713 22.6325 15.474 22.3602 15.7052 22.129C16.0084 21.8259 16.3166 21.5176 16.6198 21.2145C17.262 20.5723 17.9042 19.9249 18.5516 19.2878C18.6492 19.1954 18.68 19.0977 18.68 18.9642C18.6749 16.981 18.6749 14.9978 18.68 13.0146C18.68 12.5882 18.8752 12.2799 19.2195 12.1566C19.7641 11.9614 20.3138 12.3519 20.3189 12.9581C20.3241 13.924 20.3189 14.8848 20.3189 15.8507C20.3189 15.9791 20.3189 16.0973 20.3189 16.2206Z" fill="white"/>
<path d="M23.5155 29.1572C23.1404 29.1366 22.8321 28.8951 22.7294 28.5304C22.6318 28.1861 22.7756 27.8111 23.0942 27.6313C23.3665 27.4771 23.6491 27.3333 23.9368 27.21C24.3375 27.0353 24.7896 27.2048 24.9849 27.585C25.175 27.9652 25.0619 28.4225 24.692 28.6434C24.4197 28.8078 24.1269 28.9414 23.834 29.0801C23.7364 29.1263 23.6234 29.1315 23.5155 29.1572Z" fill="white"/>
<path d="M27.9746 22.2214C28.0517 21.9594 28.1339 21.5484 28.2932 21.1682C28.4421 20.8085 28.8789 20.6647 29.2539 20.788C29.6187 20.9061 29.8704 21.2658 29.8037 21.646C29.742 21.9953 29.6547 22.3396 29.5416 22.6735C29.4132 23.0486 29.0227 23.2284 28.6066 23.1513C28.2469 23.0845 27.9797 22.7506 27.9746 22.2214Z" fill="white"/>
<path d="M28.1701 25.2988C28.093 25.4683 28.0314 25.6481 27.9286 25.8023C27.7848 26.0181 27.6101 26.2133 27.4405 26.4085C27.1374 26.7733 26.639 26.8298 26.2897 26.5524C25.93 26.2698 25.8684 25.7817 26.1509 25.4015C26.3308 25.16 26.5209 24.9288 26.7212 24.7079C26.9473 24.4613 27.3018 24.3894 27.6049 24.5127C27.9286 24.636 28.129 24.934 28.1701 25.2988Z" fill="white"/>
</svg>
