<svg width="41" height="40" viewBox="0 0 41 40" fill="none" xmlns="http://www.w3.org/2000/svg">
<rect x="0.666992" width="40" height="40" rx="6" fill="#323232"/>
<g clip-path="url(#clip0_2_309)">
<path d="M19 18C18.2044 18 17.4413 18.3161 16.8787 18.8787C16.3161 19.4413 16 20.2044 16 21C16 21.7957 16.3161 22.5587 16.8787 23.1213C17.4413 23.6839 18.2044 24 19 24H23C23.7956 24 24.5587 23.6839 25.1213 23.1213C25.6839 22.5587 26 21.7957 26 21C26 20.2044 25.6839 19.4413 25.1213 18.8787C24.5587 18.3161 23.7956 18 23 18H19ZM24 21C24 21.2652 23.8946 21.5196 23.7071 21.7071C23.5196 21.8947 23.2652 22 23 22H19C18.7348 22 18.4804 21.8947 18.2929 21.7071C18.1054 21.5196 18 21.2652 18 21C18 20.7348 18.1054 20.4804 18.2929 20.2929C18.4804 20.1054 18.7348 20 19 20H23C23.2652 20 23.5196 20.1054 23.7071 20.2929C23.8946 20.4804 24 20.7348 24 21ZM26 27C26 27.2652 25.8946 27.5196 25.7071 27.7071C25.5196 27.8947 25.2652 28 25 28H17C16.7348 28 16.4804 27.8947 16.2929 27.7071C16.1054 27.5196 16 27.2652 16 27C16 26.7348 16.1054 26.4804 16.2929 26.2929C16.4804 26.1054 16.7348 26 17 26H25C25.2652 26 25.5196 26.1054 25.7071 26.2929C25.8946 26.4804 26 26.7348 26 27ZM28.536 11.121L26.878 9.46502C26.4149 8.99927 25.864 8.62998 25.2572 8.37851C24.6504 8.12705 23.9998 7.9984 23.343 8.00001H17C15.6744 8.0016 14.4036 8.5289 13.4662 9.46624C12.5289 10.4036 12.0016 11.6744 12 13V27C12.0016 28.3256 12.5289 29.5965 13.4662 30.5338C14.4036 31.4711 15.6744 31.9984 17 32H25C26.3256 31.9984 27.5964 31.4711 28.5338 30.5338C29.4711 29.5965 29.9984 28.3256 30 27V14.657C30.0019 14.0001 29.8735 13.3493 29.6222 12.7424C29.3709 12.1354 29.0017 11.5843 28.536 11.121ZM27.122 12.535C27.2627 12.6774 27.3893 12.8332 27.5 13H25V10.5C25.1671 10.6095 25.3226 10.7359 25.464 10.877L27.122 12.535ZM28 27C28 27.7957 27.6839 28.5587 27.1213 29.1213C26.5587 29.6839 25.7956 30 25 30H17C16.2044 30 15.4413 29.6839 14.8787 29.1213C14.3161 28.5587 14 27.7957 14 27V13C14 12.2044 14.3161 11.4413 14.8787 10.8787C15.4413 10.3161 16.2044 10 17 10H23V13C23 13.5304 23.2107 14.0392 23.5858 14.4142C23.9609 14.7893 24.4696 15 25 15H28V27Z" fill="white"/>
</g>
<defs>
<clipPath id="clip0_2_309">
<rect width="24" height="24" fill="white" transform="translate(9 8)"/>
</clipPath>
</defs>
</svg>
