<svg width="48" height="48" viewBox="0 0 48 48" fill="none" xmlns="http://www.w3.org/2000/svg">
<circle cx="24" cy="24" r="24" fill="white"/>
<g clip-path="url(#clip0_12_74)">
<path d="M24 26.5C25.6569 26.5 27 25.1569 27 23.5C27 21.8431 25.6569 20.5 24 20.5C22.3431 20.5 21 21.8431 21 23.5C21 25.1569 22.3431 26.5 24 26.5Z" stroke="black" stroke-width="2" stroke-linecap="round" stroke-linejoin="round"/>
<path d="M31.4 26.5C31.2669 26.8016 31.2272 27.1362 31.286 27.4606C31.3448 27.785 31.4995 28.0843 31.73 28.32L31.79 28.38C31.976 28.5657 32.1235 28.7863 32.2241 29.0291C32.3248 29.2719 32.3766 29.5322 32.3766 29.795C32.3766 30.0578 32.3248 30.3181 32.2241 30.5609C32.1235 30.8037 31.976 31.0243 31.79 31.21C31.6043 31.396 31.3837 31.5435 31.1409 31.6441C30.8981 31.7448 30.6378 31.7966 30.375 31.7966C30.1122 31.7966 29.8519 31.7448 29.6091 31.6441C29.3663 31.5435 29.1457 31.396 28.96 31.21L28.9 31.15C28.6643 30.9195 28.365 30.7648 28.0406 30.706C27.7162 30.6472 27.3816 30.6869 27.08 30.82C26.7842 30.9468 26.532 31.1572 26.3543 31.4255C26.1766 31.6938 26.0813 32.0082 26.08 32.33V32.5C26.08 33.0304 25.8693 33.5391 25.4942 33.9142C25.1191 34.2893 24.6104 34.5 24.08 34.5C23.5496 34.5 23.0409 34.2893 22.6658 33.9142C22.2907 33.5391 22.08 33.0304 22.08 32.5V32.41C22.0723 32.079 21.9651 31.758 21.7725 31.4887C21.5799 31.2194 21.3107 31.0143 21 30.9C20.6984 30.7669 20.3638 30.7272 20.0394 30.786C19.715 30.8448 19.4157 30.9995 19.18 31.23L19.12 31.29C18.9343 31.476 18.7137 31.6235 18.4709 31.7241C18.2281 31.8248 17.9678 31.8766 17.705 31.8766C17.4422 31.8766 17.1819 31.8248 16.9391 31.7241C16.6963 31.6235 16.4757 31.476 16.29 31.29C16.104 31.1043 15.9565 30.8837 15.8559 30.6409C15.7552 30.3981 15.7034 30.1378 15.7034 29.875C15.7034 29.6122 15.7552 29.3519 15.8559 29.1091C15.9565 28.8663 16.104 28.6457 16.29 28.46L16.35 28.4C16.5805 28.1643 16.7352 27.865 16.794 27.5406C16.8528 27.2162 16.8131 26.8816 16.68 26.58C16.5532 26.2842 16.3428 26.032 16.0745 25.8543C15.8062 25.6766 15.4918 25.5813 15.17 25.58H15C14.4696 25.58 13.9609 25.3693 13.5858 24.9942C13.2107 24.6191 13 24.1104 13 23.58C13 23.0496 13.2107 22.5409 13.5858 22.1658C13.9609 21.7907 14.4696 21.58 15 21.58H15.09C15.421 21.5723 15.742 21.4651 16.0113 21.2725C16.2806 21.0799 16.4857 20.8107 16.6 20.5C16.7331 20.1984 16.7728 19.8638 16.714 19.5394C16.6552 19.215 16.5005 18.9157 16.27 18.68L16.21 18.62C16.024 18.4343 15.8765 18.2137 15.7759 17.9709C15.6752 17.7281 15.6234 17.4678 15.6234 17.205C15.6234 16.9422 15.6752 16.6819 15.7759 16.4391C15.8765 16.1963 16.024 15.9757 16.21 15.79C16.3957 15.604 16.6163 15.4565 16.8591 15.3559C17.1019 15.2552 17.3622 15.2034 17.625 15.2034C17.8878 15.2034 18.1481 15.2552 18.3909 15.3559C18.6337 15.4565 18.8543 15.604 19.04 15.79L19.1 15.85C19.3357 16.0805 19.635 16.2352 19.9594 16.294C20.2838 16.3528 20.6184 16.3131 20.92 16.18H21C21.2958 16.0532 21.548 15.8428 21.7257 15.5745C21.9034 15.3062 21.9987 14.9918 22 14.67V14.5C22 13.9696 22.2107 13.4609 22.5858 13.0858C22.9609 12.7107 23.4696 12.5 24 12.5C24.5304 12.5 25.0391 12.7107 25.4142 13.0858C25.7893 13.4609 26 13.9696 26 14.5V14.59C26.0013 14.9118 26.0966 15.2262 26.2743 15.4945C26.452 15.7628 26.7042 15.9732 27 16.1C27.3016 16.2331 27.6362 16.2728 27.9606 16.214C28.285 16.1552 28.5843 16.0005 28.82 15.77L28.88 15.71C29.0657 15.524 29.2863 15.3765 29.5291 15.2759C29.7719 15.1752 30.0322 15.1234 30.295 15.1234C30.5578 15.1234 30.8181 15.1752 31.0609 15.2759C31.3037 15.3765 31.5243 15.524 31.71 15.71C31.896 15.8957 32.0435 16.1163 32.1441 16.3591C32.2448 16.6019 32.2966 16.8622 32.2966 17.125C32.2966 17.3878 32.2448 17.6481 32.1441 17.8909C32.0435 18.1337 31.896 18.3543 31.71 18.54L31.65 18.6C31.4195 18.8357 31.2648 19.135 31.206 19.4594C31.1472 19.7838 31.1869 20.1184 31.32 20.42V20.5C31.4468 20.7958 31.6572 21.048 31.9255 21.2257C32.1938 21.4034 32.5082 21.4987 32.83 21.5H33C33.5304 21.5 34.0391 21.7107 34.4142 22.0858C34.7893 22.4609 35 22.9696 35 23.5C35 24.0304 34.7893 24.5391 34.4142 24.9142C34.0391 25.2893 33.5304 25.5 33 25.5H32.91C32.5882 25.5013 32.2738 25.5966 32.0055 25.7743C31.7372 25.952 31.5268 26.2042 31.4 26.5Z" stroke="black" stroke-width="2" stroke-linecap="round" stroke-linejoin="round"/>
</g>
<defs>
<clipPath id="clip0_12_74">
<rect width="24" height="24" fill="white" transform="translate(12 11.5)"/>
</clipPath>
</defs>
</svg>
