<svg width="41" height="40" viewBox="0 0 41 40" fill="none" xmlns="http://www.w3.org/2000/svg">
<rect x="0.333008" width="40" height="40" rx="6" fill="#323232"/>
<g clip-path="url(#clip0_2_300)">
<path d="M20 24C19.2089 24 18.4355 23.7654 17.7777 23.3259C17.1199 22.8864 16.6072 22.2616 16.3045 21.5307C16.0017 20.7998 15.9225 19.9956 16.0769 19.2196C16.2312 18.4437 16.6122 17.731 17.1716 17.1716C17.731 16.6122 18.4437 16.2312 19.2196 16.0769C19.9956 15.9225 20.7998 16.0017 21.5307 16.3045C22.2616 16.6072 22.8864 17.1199 23.3259 17.7777C23.7654 18.4355 24 19.2089 24 20C24 21.0609 23.5786 22.0783 22.8284 22.8284C22.0783 23.5786 21.0609 24 20 24ZM20 18C19.6044 18 19.2178 18.1173 18.8889 18.3371C18.56 18.5568 18.3036 18.8692 18.1522 19.2346C18.0009 19.6001 17.9613 20.0022 18.0384 20.3902C18.1156 20.7781 18.3061 21.1345 18.5858 21.4142C18.8655 21.6939 19.2219 21.8844 19.6098 21.9616C19.9978 22.0387 20.3999 21.9991 20.7654 21.8478C21.1308 21.6964 21.4432 21.44 21.6629 21.1111C21.8827 20.7822 22 20.3956 22 20C22 19.4696 21.7893 18.9609 21.4142 18.5858C21.0391 18.2107 20.5304 18 20 18ZM26 31C26 29.4087 25.3679 27.8826 24.2426 26.7574C23.1174 25.6321 21.5913 25 20 25C18.4087 25 16.8826 25.6321 15.7574 26.7574C14.6321 27.8826 14 29.4087 14 31C14 31.2652 14.1054 31.5196 14.2929 31.7071C14.4804 31.8946 14.7348 32 15 32C15.2652 32 15.5196 31.8946 15.7071 31.7071C15.8946 31.5196 16 31.2652 16 31C16 29.9391 16.4214 28.9217 17.1716 28.1716C17.9217 27.4214 18.9391 27 20 27C21.0609 27 22.0783 27.4214 22.8284 28.1716C23.5786 28.9217 24 29.9391 24 31C24 31.2652 24.1054 31.5196 24.2929 31.7071C24.4804 31.8946 24.7348 32 25 32C25.2652 32 25.5196 31.8946 25.7071 31.7071C25.8946 31.5196 26 31.2652 26 31ZM26 16C25.2089 16 24.4355 15.7654 23.7777 15.3259C23.1199 14.8864 22.6072 14.2616 22.3045 13.5307C22.0017 12.7998 21.9225 11.9956 22.0769 11.2196C22.2312 10.4437 22.6122 9.73098 23.1716 9.17157C23.731 8.61216 24.4437 8.2312 25.2196 8.07686C25.9956 7.92252 26.7998 8.00173 27.5307 8.30448C28.2616 8.60723 28.8864 9.11992 29.3259 9.77772C29.7654 10.4355 30 11.2089 30 12C30 13.0609 29.5786 14.0783 28.8284 14.8284C28.0783 15.5786 27.0609 16 26 16ZM26 10C25.6044 10 25.2178 10.1173 24.8889 10.3371C24.56 10.5568 24.3036 10.8692 24.1522 11.2346C24.0009 11.6001 23.9613 12.0022 24.0384 12.3902C24.1156 12.7781 24.3061 13.1345 24.5858 13.4142C24.8655 13.6939 25.2219 13.8844 25.6098 13.9616C25.9978 14.0387 26.3999 13.9991 26.7654 13.8478C27.1308 13.6964 27.4432 13.44 27.6629 13.1111C27.8827 12.7822 28 12.3956 28 12C28 11.4696 27.7893 10.9609 27.4142 10.5858C27.0391 10.2107 26.5304 10 26 10ZM32 23C31.9984 21.4092 31.3658 19.884 30.2409 18.7591C29.116 17.6342 27.5908 17.0016 26 17C25.7348 17 25.4804 17.1054 25.2929 17.2929C25.1054 17.4804 25 17.7348 25 18C25 18.2652 25.1054 18.5196 25.2929 18.7071C25.4804 18.8946 25.7348 19 26 19C27.0609 19 28.0783 19.4214 28.8284 20.1716C29.5786 20.9217 30 21.9391 30 23C30 23.2652 30.1054 23.5196 30.2929 23.7071C30.4804 23.8946 30.7348 24 31 24C31.2652 24 31.5196 23.8946 31.7071 23.7071C31.8946 23.5196 32 23.2652 32 23ZM14 16C13.2089 16 12.4355 15.7654 11.7777 15.3259C11.1199 14.8864 10.6072 14.2616 10.3045 13.5307C10.0017 12.7998 9.92252 11.9956 10.0769 11.2196C10.2312 10.4437 10.6122 9.73098 11.1716 9.17157C11.731 8.61216 12.4437 8.2312 13.2196 8.07686C13.9956 7.92252 14.7998 8.00173 15.5307 8.30448C16.2616 8.60723 16.8864 9.11992 17.3259 9.77772C17.7654 10.4355 18 11.2089 18 12C18 13.0609 17.5786 14.0783 16.8284 14.8284C16.0783 15.5786 15.0609 16 14 16ZM14 10C13.6044 10 13.2178 10.1173 12.8889 10.3371C12.56 10.5568 12.3036 10.8692 12.1522 11.2346C12.0009 11.6001 11.9613 12.0022 12.0384 12.3902C12.1156 12.7781 12.3061 13.1345 12.5858 13.4142C12.8655 13.6939 13.2219 13.8844 13.6098 13.9616C13.9978 14.0387 14.3999 13.9991 14.7654 13.8478C15.1308 13.6964 15.4432 13.44 15.6629 13.1111C15.8827 12.7822 16 12.3956 16 12C16 11.4696 15.7893 10.9609 15.4142 10.5858C15.0391 10.2107 14.5304 10 14 10ZM10 23C10 21.9391 10.4214 20.9217 11.1716 20.1716C11.9217 19.4214 12.9391 19 14 19C14.2652 19 14.5196 18.8946 14.7071 18.7071C14.8946 18.5196 15 18.2652 15 18C15 17.7348 14.8946 17.4804 14.7071 17.2929C14.5196 17.1054 14.2652 17 14 17C12.4092 17.0016 10.884 17.6342 9.75911 18.7591C8.63424 19.884 8.00159 21.4092 8 23C8 23.2652 8.10536 23.5196 8.29289 23.7071C8.48043 23.8946 8.73478 24 9 24C9.26522 24 9.51957 23.8946 9.70711 23.7071C9.89464 23.5196 10 23.2652 10 23Z" fill="white"/>
</g>
<defs>
<clipPath id="clip0_2_300">
<rect width="24" height="24" fill="white" transform="translate(8 8)"/>
</clipPath>
</defs>
</svg>
